<svg xmlns="http://www.w3.org/2000/svg" width="300" height="300" fill="none">
  <path fill="#7B2CBF" d="M0 0h300v300H0z"/>
  <path fill="#fff" d="M40.734 156.299c-2.33 0-4.333-1.412-5.318-3.447l16.053-3.217c-.263-5.81-4.957-10.439-10.735-10.439-5.941 0-10.734 4.891-10.734 10.964 0 6.04 4.825 10.964 10.734 10.964 3.972 0 7.452-2.199 9.323-5.482l-4.399-2.068c-1.05 1.641-2.856 2.725-4.924 2.725Zm0-12.277c2.068 0 3.874 1.116 4.957 2.757l-10.767 2.167c.558-2.791 2.954-4.924 5.81-4.924ZM86.888 156.299c-2.33 0-4.333-1.412-5.318-3.447l16.053-3.217c-.263-5.81-4.957-10.439-10.735-10.439-5.941 0-10.734 4.891-10.734 10.964 0 6.04 4.826 10.964 10.734 10.964 3.972 0 7.452-2.199 9.323-5.482l-4.399-2.068c-1.083 1.641-2.888 2.725-4.924 2.725Zm0-12.277c2.068 0 3.874 1.116 4.957 2.757l-10.767 2.167c.525-2.791 2.922-4.924 5.81-4.924ZM70.672 154.231c-1.083 1.247-2.659 2.068-4.431 2.068-3.25 0-5.91-2.758-5.91-6.139 0-3.381 2.66-6.138 5.91-6.138a5.76 5.76 0 0 1 4.431 2.068l3.184-3.677c-1.936-1.969-4.628-3.217-7.615-3.217-5.942 0-10.735 4.891-10.735 10.964 0 6.04 4.826 10.964 10.735 10.964 2.954 0 5.646-1.214 7.615-3.217l-3.184-3.676ZM117.187 126v15.199c-1.707-1.248-3.775-2.003-6.007-2.003-5.745 0-10.439 4.891-10.439 10.964s4.661 10.964 10.439 10.964a9.94 9.94 0 0 0 6.007-2.002v1.477h4.76V126h-4.76Zm-5.777 30.299c-3.283 0-5.975-2.758-5.975-6.139 0-3.381 2.692-6.138 5.975-6.138 3.282 0 5.974 2.757 5.974 6.138s-2.659 6.139-5.974 6.139ZM132.254 139.688h-4.76v20.943h4.76v-20.943ZM126.641 133.254c0-.82.295-1.51.886-2.101.591-.59 1.346-.886 2.265-.886s1.674.296 2.298.854c.624.558.952 1.28.952 2.133 0 .854-.328 1.576-.952 2.134-.624.558-1.411.854-2.298.854-.886 0-1.674-.296-2.265-.887-.558-.591-.886-1.28-.886-2.101Z"/>
</svg>
